<?xml version="1.0" encoding="utf-8"?>
<!-- Generator: Adobe Illustrator 16.0.0, SVG Export Plug-In . SVG Version: 6.00 Build 0)  -->
<!DOCTYPE svg PUBLIC "-//W3C//DTD SVG 1.1//EN" "http://www.w3.org/Graphics/SVG/1.1/DTD/svg11.dtd">
<svg version="1.1" id="Layer_1" xmlns="http://www.w3.org/2000/svg" xmlns:xlink="http://www.w3.org/1999/xlink" x="0px" y="0px"
	 width="263.919px" height="263.919px" viewBox="0 0 263.919 263.919" enable-background="new 0 0 263.919 263.919"
	 xml:space="preserve">
<g>
	<path fill-rule="evenodd" clip-rule="evenodd" fill="#424243" d="M161.926,131.128c0,5.265,0,10.347,0,15.428
		c0,4.98,0,9.96,0,15.182c-19.938,0-39.729,0-59.88,0c0-10.136,0-20.33,0-31.234c-5.084,3.381-9.521,6.504-14.144,9.319
		c-1.758,1.07-3.915,1.876-5.945,2.026c-4.402,0.324-8.143-2.536-9.564-6.729c-1.389-4.098-0.022-8.771,3.572-11.201
		c10.031-6.782,20.085-13.534,30.252-20.108c1.695-1.096,3.998-1.724,6.029-1.748c13.102-0.151,26.208-0.168,39.31,0.019
		c2.201,0.032,4.668,0.831,6.528,2.028c9.77,6.291,19.4,12.796,29.045,19.281c5.17,3.478,6.406,9.417,3.081,14.274
		c-3.222,4.707-9.045,5.665-14.213,2.282c-4.411-2.888-8.78-5.837-13.177-8.747C162.688,131.112,162.46,131.166,161.926,131.128z"/>
	<path fill-rule="evenodd" clip-rule="evenodd" fill="#424243" d="M101.938,61.948c-0.181-16.456,13.275-30.122,29.792-30.256
		c15.944-0.129,29.7,13.225,30.263,28.676c0.604,16.581-12.239,31.324-30.006,31.561C115.619,92.148,102.123,78.611,101.938,61.948z
		"/>
	<path fill-rule="evenodd" clip-rule="evenodd" fill="#424243" d="M102.133,182c4.565,0,8.852-0.069,13.13,0.07
		c0.685,0.022,1.72,0.85,1.95,1.524c4.337,12.725,5.547,25.848,4.697,39.197c-0.338,5.295-4.998,9.534-10.15,9.422
		c-5.393-0.118-9.759-4.487-9.781-10.002c-0.057-12.7-0.023-25.4-0.018-38.1C101.962,183.539,102.051,182.965,102.133,182z"/>
	<path fill-rule="evenodd" clip-rule="evenodd" fill="#424243" d="M161.952,181.997c0,6.137,0.003,11.969-0.001,17.8
		c-0.005,7.328-0.003,14.656-0.027,21.984c-0.02,5.739-4.232,10.27-9.671,10.441c-5.566,0.175-10.216-4.327-10.298-10.167
		c-0.092-6.35-0.497-12.75,0.135-19.038c0.541-5.373,2.315-10.627,3.621-15.914c1.264-5.117,1.307-5.106,6.57-5.107
		C155.384,181.996,158.486,181.997,161.952,181.997z"/>
</g>
</svg>
