<?xml version="1.0" encoding="utf-8"?>
<!-- Generator: Adobe Illustrator 14.0.0, SVG Export Plug-In . SVG Version: 6.00 Build 43363)  -->
<!DOCTYPE svg PUBLIC "-//W3C//DTD SVG 1.1//EN" "http://www.w3.org/Graphics/SVG/1.1/DTD/svg11.dtd">
<svg version="1.1" id="Layer_1" xmlns="http://www.w3.org/2000/svg" xmlns:xlink="http://www.w3.org/1999/xlink" x="0px" y="0px"
	 width="173.89px" height="224.747px" viewBox="0 0 173.89 224.747" enable-background="new 0 0 173.89 224.747"
	 xml:space="preserve">
<path fill="#424143" d="M54.747,224.747H173.89V0H0v163.794L54.747,224.747z M15.65,15.646h142.591v193.451H61.92v-51.121H15.65
	V15.646z"/>
<polygon fill="#FFFFFF" points="15.65,157.977 15.65,15.646 158.241,15.646 158.241,209.098 61.92,209.098 61.92,157.977 "/>
<rect x="33.595" y="138.101" fill="#424143" width="105" height="10.5"/>
<rect x="70.095" y="161.101" fill="#424143" width="68.5" height="10.5"/>
<rect x="70.095" y="184.101" fill="#424143" width="68.5" height="10.5"/>
<path fill="#424143" d="M91.766,43.999c-5.046,0-9.882,0.915-14.353,2.584l0.419,5.468c1.743-0.736,3.554-1.344,5.424-1.8
	c-0.188,0.18-0.378,0.363-0.57,0.552c-0.071,0.068-0.14,0.139-0.213,0.211c-0.387,0.385-0.777,0.786-1.171,1.207
	c-0.067,0.071-0.133,0.145-0.199,0.218c-0.404,0.435-0.809,0.892-1.215,1.367c-0.053,0.061-0.107,0.126-0.16,0.188
	c-0.421,0.501-0.841,1.019-1.263,1.563c-0.026,0.033-0.052,0.07-0.079,0.104c-0.084,0.11-0.167,0.225-0.251,0.336l0.558,7.278
	c0.043-0.076,0.084-0.156,0.128-0.232c0.109-0.188,0.223-0.358,0.331-0.542c0.359-0.597,0.721-1.184,1.093-1.74
	c0.173-0.264,0.349-0.51,0.528-0.762c0.316-0.457,0.637-0.901,0.961-1.328c0.188-0.25,0.375-0.493,0.565-0.732
	c0.324-0.408,0.649-0.803,0.973-1.183c0.18-0.212,0.361-0.425,0.54-0.628c0.359-0.405,0.719-0.789,1.075-1.161
	c0.135-0.144,0.273-0.296,0.406-0.432c0.486-0.494,0.968-0.961,1.431-1.393c0.093-0.087,0.184-0.163,0.278-0.249
	c0.372-0.336,0.738-0.659,1.085-0.957c0.158-0.134,0.307-0.255,0.459-0.381c0.275-0.226,0.544-0.443,0.797-0.642
	c0.066-0.052,0.132-0.099,0.195-0.149v17.033c-0.023-0.001-0.047-0.004-0.071-0.004c-0.916-0.043-1.817-0.115-2.717-0.209
	c-0.238-0.022-0.477-0.05-0.716-0.077c-0.839-0.1-1.67-0.218-2.493-0.358c-0.087-0.016-0.173-0.026-0.257-0.04
	c-0.892-0.161-1.768-0.354-2.638-0.564c-0.232-0.056-0.462-0.116-0.691-0.177c-0.351-0.09-0.7-0.186-1.047-0.285l0.106,1.387
	l0.254,3.322c0.045,0.011,0.089,0.023,0.134,0.034c0.994,0.245,1.998,0.473,3.019,0.656c0.052,0.01,0.104,0.015,0.155,0.023
	c0.976,0.177,1.972,0.313,2.968,0.431c0.257,0.029,0.516,0.058,0.774,0.085c1.042,0.106,2.09,0.189,3.149,0.233
	c0.024,0.001,0.048,0.004,0.071,0.006v10.655H73.201v-0.028c0.047-1.024,0.136-2.032,0.243-3.03c0.026-0.248,0.057-0.494,0.086-0.74
	c0.122-0.981,0.263-1.959,0.447-2.92c0.004-0.016,0.006-0.034,0.01-0.05c0.186-0.971,0.414-1.925,0.661-2.87
	c0.051-0.19,0.102-0.38,0.154-0.571l-2.092-1.112l-1.933-1.027c-0.041,0.136-0.082,0.272-0.121,0.41
	c-0.145,0.501-0.284,1.006-0.415,1.516c-0.053,0.216-0.11,0.431-0.162,0.647c-0.158,0.663-0.306,1.334-0.437,2.009
	c-0.009,0.046-0.02,0.093-0.029,0.14c-0.141,0.727-0.259,1.46-0.366,2.197c-0.032,0.206-0.057,0.413-0.084,0.618
	c-0.072,0.547-0.137,1.097-0.194,1.647c-0.025,0.233-0.046,0.469-0.067,0.703c-0.053,0.589-0.091,1.182-0.123,1.775
	c-0.008,0.17-0.024,0.339-0.027,0.511c-0.006,0.059-0.012,0.117-0.012,0.176H55.921c0.39-6.323,2.425-12.204,5.678-17.229
	l-4.637-2.464c-4.014,6.351-6.341,13.868-6.341,21.922c0,22.687,18.458,41.145,41.145,41.145c22.688,0,41.146-18.458,41.146-41.145
	C132.912,62.456,114.455,43.999,91.766,43.999 M65.121,108.413c-0.146,0.096-0.292,0.191-0.44,0.286
	c-5.039-5.786-8.258-13.191-8.76-21.326H68.74c0.003,0.127,0.015,0.253,0.022,0.381c0.012,0.273,0.032,0.545,0.05,0.819
	c0.037,0.61,0.086,1.218,0.146,1.823c0.026,0.286,0.056,0.575,0.09,0.859c0.073,0.633,0.157,1.261,0.254,1.882
	c0.035,0.228,0.063,0.453,0.099,0.678c0.142,0.838,0.301,1.674,0.482,2.497c0.027,0.126,0.061,0.249,0.089,0.374
	c0.159,0.695,0.335,1.387,0.523,2.069c0.07,0.257,0.148,0.51,0.221,0.767c0.165,0.561,0.342,1.12,0.529,1.674
	c0.087,0.261,0.174,0.521,0.266,0.778c0.216,0.604,0.444,1.201,0.681,1.794c0.074,0.18,0.141,0.364,0.216,0.54
	c0.023,0.058,0.041,0.117,0.067,0.175c-0.207,0.085-0.407,0.185-0.614,0.274c-0.24,0.106-0.478,0.216-0.716,0.325
	c-0.833,0.382-1.655,0.781-2.463,1.214c-0.1,0.056-0.202,0.103-0.304,0.156c-0.887,0.483-1.758,1.002-2.612,1.543
	C65.55,108.132,65.335,108.273,65.121,108.413 M67.873,111.936c0.101-0.064,0.203-0.128,0.306-0.192
	c0.691-0.437,1.396-0.853,2.113-1.249c0.13-0.071,0.257-0.146,0.388-0.217c0.792-0.424,1.599-0.818,2.417-1.193
	c0.188-0.086,0.378-0.168,0.571-0.252c0.25-0.108,0.505-0.202,0.753-0.305c0.054,0.095,0.108,0.182,0.159,0.274
	c0.155,0.278,0.312,0.545,0.47,0.814c0.252,0.437,0.506,0.868,0.765,1.283c0.17,0.273,0.34,0.537,0.512,0.802
	c0.259,0.395,0.518,0.782,0.781,1.162c0.176,0.247,0.346,0.495,0.521,0.734c0.277,0.381,0.552,0.746,0.831,1.11
	c0.163,0.208,0.325,0.424,0.487,0.626c0.32,0.401,0.639,0.782,0.961,1.159c0.121,0.141,0.242,0.29,0.363,0.429
	c0.444,0.508,0.882,0.992,1.319,1.449c0.083,0.086,0.163,0.165,0.248,0.252c0.355,0.366,0.708,0.723,1.052,1.061
	c0.128,0.122,0.253,0.239,0.379,0.356C77.459,118.625,72.198,115.797,67.873,111.936 M89.539,119.542
	c-0.017-0.011-0.026-0.018-0.041-0.031c-0.353-0.271-0.728-0.567-1.116-0.892c-0.054-0.043-0.112-0.096-0.167-0.144
	c-0.338-0.282-0.682-0.579-1.038-0.901c-0.14-0.125-0.287-0.266-0.431-0.399c-0.28-0.258-0.563-0.522-0.853-0.804
	c-0.17-0.167-0.341-0.346-0.515-0.519c-0.272-0.276-0.545-0.559-0.819-0.854c-0.187-0.197-0.37-0.401-0.557-0.606
	c-0.271-0.302-0.541-0.613-0.813-0.935c-0.189-0.224-0.376-0.449-0.567-0.682c-0.273-0.335-0.546-0.687-0.815-1.045
	c-0.186-0.242-0.371-0.48-0.554-0.733c-0.281-0.386-0.556-0.793-0.832-1.201c-0.167-0.249-0.339-0.489-0.503-0.746
	c-0.317-0.49-0.626-1.01-0.931-1.531c-0.099-0.173-0.206-0.335-0.306-0.514c0.121-0.034,0.242-0.066,0.362-0.101
	c0.62-0.177,1.247-0.341,1.88-0.489c0.19-0.047,0.38-0.092,0.57-0.136c0.792-0.176,1.593-0.334,2.402-0.469
	c0.136-0.022,0.272-0.037,0.407-0.06c0.685-0.106,1.377-0.197,2.073-0.272c0.237-0.029,0.474-0.054,0.714-0.075
	c0.711-0.067,1.427-0.121,2.15-0.158c0.1-0.004,0.199-0.014,0.301-0.02V119.542z M89.539,100.763c-0.008,0-0.019,0.003-0.026,0.003
	c-0.983,0.039-1.956,0.116-2.921,0.212c-0.25,0.021-0.495,0.048-0.742,0.074c-0.968,0.108-1.929,0.232-2.878,0.396
	c-0.028,0.002-0.058,0.012-0.086,0.014c-0.928,0.158-1.838,0.353-2.747,0.563c-0.235,0.054-0.47,0.108-0.703,0.167
	c-0.923,0.228-1.839,0.472-2.739,0.751c-0.007,0.004-0.013,0.004-0.017,0.004c-0.037-0.089-0.082-0.177-0.121-0.269
	c-0.093-0.218-0.175-0.438-0.263-0.659c-0.196-0.484-0.384-0.975-0.56-1.47c-0.089-0.249-0.174-0.499-0.26-0.751
	c-0.168-0.502-0.325-1.009-0.477-1.517c-0.067-0.227-0.137-0.448-0.198-0.675c-0.202-0.726-0.388-1.457-0.554-2.198
	c-0.021-0.095-0.034-0.19-0.054-0.284c-0.143-0.655-0.269-1.313-0.381-1.979c-0.044-0.253-0.08-0.512-0.117-0.771
	c-0.077-0.521-0.151-1.043-0.211-1.568c-0.031-0.278-0.063-0.556-0.09-0.834c-0.054-0.555-0.099-1.115-0.133-1.677
	c-0.014-0.234-0.034-0.464-0.047-0.701c-0.001-0.073,0-0.146-0.005-0.221h16.331V100.763z M118.873,64.313
	c0.472-0.32,0.939-0.649,1.403-0.984c4.22,5.501,6.884,12.247,7.335,19.587h-12.816c-0.002-0.059-0.008-0.117-0.01-0.176
	c-0.008-0.171-0.021-0.34-0.031-0.508c-0.029-0.595-0.07-1.189-0.123-1.776c-0.02-0.236-0.041-0.47-0.067-0.705
	c-0.055-0.551-0.121-1.101-0.192-1.644c-0.026-0.208-0.053-0.416-0.082-0.622c-0.108-0.737-0.229-1.471-0.369-2.197
	c-0.008-0.047-0.02-0.094-0.027-0.14c-0.132-0.675-0.279-1.346-0.439-2.009c-0.052-0.217-0.107-0.431-0.162-0.646
	c-0.131-0.512-0.268-1.018-0.414-1.52c-0.063-0.223-0.127-0.442-0.194-0.664c-0.174-0.573-0.36-1.145-0.558-1.711
	c-0.043-0.121-0.08-0.241-0.125-0.362c-0.008-0.029-0.017-0.06-0.027-0.089c0.105-0.047,0.209-0.104,0.316-0.153
	c0.552-0.25,1.097-0.51,1.636-0.784c0.176-0.091,0.356-0.18,0.53-0.27c1.34-0.697,2.637-1.459,3.9-2.284
	C118.529,64.542,118.701,64.428,118.873,64.313 M117.335,59.946c-0.041,0.032-0.086,0.067-0.127,0.098
	c-0.192,0.136-0.389,0.267-0.582,0.398c-0.756,0.517-1.521,1.014-2.309,1.479c-0.053,0.03-0.107,0.065-0.16,0.099
	c-0.836,0.488-1.693,0.938-2.562,1.367c-0.206,0.104-0.415,0.201-0.622,0.301c-0.238,0.112-0.486,0.207-0.727,0.314
	c-0.021-0.045-0.045-0.088-0.067-0.136c-0.343-0.712-0.692-1.404-1.056-2.074c-0.053-0.097-0.105-0.188-0.156-0.281
	c-0.37-0.677-0.75-1.332-1.141-1.963c-0.039-0.066-0.082-0.131-0.123-0.199c-0.406-0.649-0.82-1.28-1.237-1.885
	c-0.011-0.017-0.022-0.031-0.035-0.049c-0.427-0.614-0.86-1.204-1.297-1.771c-0.021-0.026-0.041-0.056-0.062-0.083
	c-0.424-0.549-0.851-1.071-1.277-1.576c-0.049-0.058-0.096-0.119-0.146-0.173c-0.406-0.481-0.818-0.94-1.22-1.381
	c-0.065-0.069-0.131-0.14-0.196-0.207c-0.394-0.425-0.789-0.83-1.177-1.215c-0.069-0.069-0.138-0.136-0.203-0.203
	c-0.192-0.189-0.386-0.374-0.575-0.556C106.856,51.857,112.729,55.273,117.335,59.946 M93.996,50.764
	c0.065,0.055,0.133,0.103,0.201,0.156c0.25,0.193,0.51,0.406,0.776,0.625c0.157,0.13,0.313,0.255,0.478,0.395
	c0.346,0.294,0.707,0.615,1.073,0.948c0.097,0.088,0.188,0.165,0.287,0.257c0.465,0.429,0.942,0.896,1.429,1.39
	c0.137,0.138,0.277,0.294,0.411,0.438c0.354,0.367,0.712,0.75,1.071,1.153c0.182,0.204,0.361,0.421,0.545,0.634
	c0.32,0.38,0.645,0.77,0.967,1.177c0.19,0.24,0.379,0.483,0.568,0.733c0.322,0.427,0.643,0.871,0.959,1.327
	c0.177,0.252,0.355,0.499,0.529,0.763c0.369,0.554,0.729,1.136,1.084,1.731c0.111,0.186,0.227,0.361,0.338,0.551
	c0.455,0.788,0.892,1.613,1.31,2.47c0.019,0.041,0.04,0.088,0.058,0.129c-0.108,0.035-0.217,0.065-0.326,0.1
	c-0.717,0.229-1.445,0.438-2.18,0.627c-0.229,0.061-0.455,0.121-0.684,0.177c-0.87,0.211-1.747,0.403-2.637,0.564
	c-0.086,0.014-0.176,0.023-0.258,0.04c-0.821,0.141-1.656,0.259-2.496,0.358c-0.238,0.027-0.479,0.055-0.719,0.077
	c-0.897,0.094-1.801,0.169-2.716,0.209c-0.022,0-0.047,0.003-0.069,0.004V50.764z M93.996,72.26
	c0.022-0.002,0.045-0.005,0.069-0.006c1.063-0.044,2.11-0.127,3.151-0.233c0.259-0.027,0.516-0.056,0.773-0.085
	c0.994-0.117,1.985-0.254,2.959-0.429c0.057-0.008,0.112-0.016,0.166-0.025c1.019-0.184,2.019-0.411,3.01-0.654
	c0.25-0.061,0.498-0.126,0.746-0.19c0.987-0.263,1.97-0.543,2.932-0.863c0.006-0.002,0.009-0.003,0.013-0.006
	c0.005,0.006,0.007,0.014,0.007,0.019c0.325,0.911,0.608,1.843,0.871,2.78c0.066,0.234,0.129,0.47,0.192,0.707
	c0.247,0.947,0.476,1.902,0.661,2.873c0.004,0.016,0.005,0.033,0.01,0.049c0.184,0.961,0.324,1.937,0.447,2.921
	c0.029,0.246,0.06,0.492,0.087,0.74c0.108,0.998,0.194,2.006,0.239,3.03v0.028H93.996V72.26z M93.996,87.373h16.33
	c-0.006,0.074-0.004,0.147-0.006,0.221c-0.012,0.237-0.033,0.467-0.047,0.701c-0.033,0.562-0.076,1.122-0.131,1.677
	c-0.027,0.278-0.061,0.556-0.092,0.834c-0.059,0.525-0.133,1.048-0.213,1.568c-0.035,0.26-0.072,0.519-0.115,0.771
	c-0.114,0.665-0.239,1.323-0.378,1.979c-0.021,0.094-0.036,0.189-0.056,0.284c-0.166,0.741-0.354,1.473-0.555,2.198
	c-0.063,0.227-0.134,0.448-0.197,0.675c-0.153,0.508-0.309,1.015-0.479,1.517c-0.085,0.252-0.171,0.502-0.262,0.751
	c-0.176,0.495-0.363,0.985-0.557,1.47c-0.089,0.221-0.17,0.441-0.266,0.659c-0.037,0.092-0.08,0.18-0.121,0.269
	c-0.004,0-0.009,0-0.013-0.004c-0.903-0.279-1.819-0.523-2.74-0.751c-0.233-0.059-0.47-0.113-0.706-0.167
	c-0.906-0.211-1.816-0.405-2.743-0.563c-0.032-0.002-0.06-0.012-0.089-0.014c-0.949-0.163-1.911-0.287-2.879-0.396
	c-0.244-0.026-0.492-0.053-0.738-0.074c-0.968-0.096-1.938-0.173-2.921-0.212c-0.011,0-0.018-0.003-0.028-0.003V87.373z
	 M98.992,114.968c-0.285,0.304-0.562,0.588-0.838,0.87c-0.166,0.169-0.337,0.34-0.5,0.501c-0.299,0.295-0.592,0.569-0.883,0.836
	c-0.132,0.124-0.27,0.257-0.4,0.372c-0.39,0.352-0.768,0.682-1.131,0.983c-0.024,0.021-0.053,0.046-0.076,0.065
	c-0.394,0.327-0.769,0.627-1.125,0.902c-0.015,0.011-0.028,0.021-0.043,0.032v-14.304c0.102,0.006,0.199,0.016,0.303,0.02
	c0.719,0.037,1.436,0.091,2.146,0.158c0.24,0.021,0.479,0.046,0.715,0.075c0.694,0.075,1.385,0.166,2.068,0.272
	c0.137,0.021,0.275,0.037,0.41,0.06c0.807,0.135,1.604,0.291,2.396,0.469c0.197,0.044,0.396,0.093,0.592,0.139
	c0.617,0.146,1.229,0.305,1.838,0.478c0.13,0.038,0.259,0.074,0.388,0.109c-0.092,0.16-0.185,0.306-0.274,0.461
	c-0.316,0.539-0.633,1.07-0.959,1.576c-0.162,0.248-0.324,0.48-0.485,0.72c-0.283,0.415-0.562,0.828-0.847,1.219
	c-0.182,0.247-0.363,0.483-0.545,0.722c-0.274,0.358-0.547,0.715-0.824,1.053c-0.187,0.229-0.371,0.453-0.56,0.672
	c-0.272,0.324-0.548,0.642-0.821,0.944C99.355,114.574,99.171,114.774,98.992,114.968 M100.266,120.04
	c0.126-0.117,0.25-0.234,0.377-0.356c0.349-0.341,0.704-0.697,1.06-1.067c0.08-0.083,0.158-0.159,0.238-0.245
	c0.438-0.457,0.879-0.941,1.32-1.449c0.124-0.139,0.242-0.288,0.365-0.433c0.32-0.374,0.64-0.754,0.957-1.151
	c0.166-0.206,0.328-0.422,0.492-0.633c0.277-0.361,0.553-0.727,0.828-1.107c0.176-0.239,0.348-0.484,0.52-0.733
	c0.264-0.381,0.525-0.769,0.785-1.165c0.17-0.264,0.342-0.526,0.511-0.8c0.258-0.415,0.514-0.847,0.767-1.283
	c0.155-0.27,0.313-0.536,0.467-0.814c0.051-0.093,0.106-0.18,0.16-0.274c0.248,0.103,0.506,0.196,0.754,0.305
	c0.19,0.084,0.381,0.166,0.571,0.252c0.815,0.375,1.625,0.77,2.416,1.193c0.13,0.07,0.257,0.146,0.388,0.217
	c0.717,0.396,1.42,0.813,2.112,1.249c0.103,0.064,0.204,0.128,0.306,0.192C111.335,115.796,106.076,118.624,100.266,120.04
	 M118.85,108.699c-0.147-0.092-0.293-0.189-0.438-0.284c-0.213-0.142-0.428-0.283-0.645-0.421c-0.854-0.54-1.723-1.06-2.613-1.541
	c-0.099-0.054-0.201-0.101-0.304-0.156c-0.808-0.431-1.628-0.832-2.459-1.214c-0.239-0.109-0.479-0.219-0.72-0.325
	c-0.206-0.09-0.406-0.189-0.612-0.274c0.024-0.058,0.044-0.117,0.065-0.175c0.078-0.176,0.143-0.36,0.217-0.54
	c0.236-0.593,0.467-1.19,0.682-1.794c0.092-0.257,0.178-0.518,0.266-0.777c0.187-0.555,0.362-1.114,0.527-1.678
	c0.075-0.255,0.153-0.507,0.223-0.764c0.188-0.683,0.362-1.374,0.523-2.069c0.025-0.125,0.061-0.248,0.089-0.374
	c0.183-0.823,0.339-1.659,0.479-2.497c0.037-0.225,0.066-0.45,0.102-0.674c0.096-0.625,0.182-1.253,0.254-1.889
	c0.031-0.282,0.063-0.57,0.09-0.856c0.06-0.605,0.107-1.213,0.146-1.823c0.019-0.274,0.038-0.546,0.052-0.819
	c0.004-0.128,0.018-0.254,0.021-0.381h12.816C127.109,95.508,123.89,102.913,118.85,108.699"/>
<path fill="#424143" d="M48.299,53.748l26.428,14.05L72.44,37.954c-0.56-7.304-5.877-13.357-13.046-14.855
	c-1.136-0.238-2.269-0.353-3.385-0.353c-7.629,0-14.474,5.334-16.098,13.099C38.413,43.014,41.833,50.311,48.299,53.748
	 M51.883,32.88c3.564-2.332,8.345-1.333,10.678,2.231c2.332,3.565,1.333,8.345-2.233,10.678c-3.564,2.333-8.344,1.333-10.676-2.231
	C47.319,39.992,48.317,35.213,51.883,32.88"/>
<path fill="#FFFFFF" d="M60.329,45.789c3.566-2.333,4.565-7.112,2.233-10.678c-2.333-3.564-7.114-4.563-10.678-2.231
	c-3.566,2.332-4.565,7.112-2.232,10.678C51.983,47.122,56.765,48.122,60.329,45.789"/>
</svg>
