<?xml version="1.0" encoding="utf-8"?>
<!-- Generator: Adobe Illustrator 16.0.0, SVG Export Plug-In . SVG Version: 6.00 Build 0)  -->
<!DOCTYPE svg PUBLIC "-//W3C//DTD SVG 1.1//EN" "http://www.w3.org/Graphics/SVG/1.1/DTD/svg11.dtd">
<svg version="1.1" id="Layer_1" xmlns="http://www.w3.org/2000/svg" xmlns:xlink="http://www.w3.org/1999/xlink" x="0px" y="0px"
	 width="263.919px" height="263.919px" viewBox="0 0 263.919 263.919" enable-background="new 0 0 263.919 263.919"
	 xml:space="preserve">
<g>
	<polygon fill="#424243" points="127.216,93.54 127.216,138.148 170.976,138.148 170.976,128.31 137.055,128.31 137.055,93.54 	"/>
	<path fill="#424243" d="M131.959,184.346c-28.186,0-51.117-22.932-51.117-51.116c0-28.187,22.932-51.117,51.117-51.117
		c9.371,0,18.382,2.506,26.305,7.28l-11.278,11.282l34.87-0.006l-0.007-34.87l-13.62,13.625
		c-10.733-7.254-23.228-11.086-36.27-11.086c-35.78,0-64.891,29.11-64.891,64.892c0,35.78,29.11,64.891,64.891,64.891
		c35.782,0,64.892-29.11,64.892-64.891h-13.773C183.077,161.414,160.146,184.346,131.959,184.346z"/>
</g>
</svg>
