<?xml version="1.0" encoding="utf-8"?>
<!-- Generator: Adobe Illustrator 14.0.0, SVG Export Plug-In . SVG Version: 6.00 Build 43363)  -->
<!DOCTYPE svg PUBLIC "-//W3C//DTD SVG 1.1//EN" "http://www.w3.org/Graphics/SVG/1.1/DTD/svg11.dtd">
<svg version="1.1" id="Layer_1" xmlns="http://www.w3.org/2000/svg" xmlns:xlink="http://www.w3.org/1999/xlink" x="0px" y="0px"
	 width="238.255px" height="178.299px" viewBox="0 0 238.255 178.299" enable-background="new 0 0 238.255 178.299"
	 xml:space="preserve">
<path fill="#F2F2F3" d="M187.232,75.363c-1.994,5.983-6.037,10.627-11.373,13.085l-0.066,0.028l-0.043,0.027
	c-0.074,0.037-7.211,3.915-20.006,9.79l-42.615,19.567c-1.485,0.683-3.06,1.038-4.563,1.038c-2.549,0-4.534-1.002-5.308-2.686
	c-1.266-2.769,1.111-6.685,5.19-8.561l21.718-9.971l2.512-1.156l-2.049-1.85c-0.272-0.244-0.545-0.5-0.81-0.765l-0.894-0.891
	l-1.146,0.528l-38.271,17.573c-1.358,0.618-2.822,0.947-4.262,0.947c-3.141,0-5.801-1.53-6.93-3.998
	c-0.81-1.757-0.764-3.797,0.119-5.746c0.938-2.03,2.659-3.715,4.872-4.726l36.722-16.863l1.658-0.756l-0.767-1.658l-0.461-1.01
	l-0.756-1.649l-1.66,0.756l-43.47,19.959c-1.357,0.629-2.832,0.957-4.261,0.957c-3.151,0-5.801-1.539-6.94-3.998
	c-1.711-3.724,0.529-8.432,4.991-10.479l44.034-20.216l1.34-0.61l-0.319-1.438c-0.074-0.346-0.136-0.692-0.201-1.038l-0.41-2.332
	l-2.148,0.984L75.267,74.462c-1.357,0.619-2.832,0.956-4.262,0.956c-3.142,0-5.801-1.529-6.939-3.997
	c-0.801-1.758-0.755-3.798,0.128-5.746c0.929-2.04,2.66-3.715,4.835-4.717c50.71-22.063,50.71-22.063,50.956-22.271l2.904-2.487
	l-3.769-0.683l-11.265-2.057c-2.339-0.419-4.379-1.731-5.727-3.688c-1.356-1.958-1.867-4.325-1.439-6.665
	c0.765-4.235,4.444-7.312,8.742-7.312c0.537,0,1.074,0.054,1.612,0.145l48.981,8.906c1.184,0.219,2.283,0.655,3.283,1.31
	l0.201,0.138l0.229,0.072c6.273,2.049,11.502,6.766,14.342,12.958l8.168,17.802C188.886,62.87,189.234,69.344,187.232,75.363"/>
<path fill="#414142" d="M191.21,54.848l-8.168-17.811c-3.414-7.421-9.654-13.13-17.164-15.716c-0.119-0.073-0.574-0.209-1.313-0.382
	c-8.32-2.068-52.54-10.381-52.54-10.381c-0.017,0-0.035,0-0.054-0.009c-0.902-0.146-1.731-0.219-2.54-0.219
	c-6.949,0-12.886,4.963-14.123,11.811c-1.374,7.63,3.569,14.969,11.081,16.599c-11.227,4.89-28.582,12.438-39.545,17.21
	c-0.02,0.009-0.037,0.018-0.065,0.027c-3.396,1.558-6.073,4.198-7.548,7.43c-1.557,3.406-1.602,7.067-0.127,10.291
	c1.046,2.276,2.757,4.115,4.898,5.354c-2.705,1.766-4.78,4.306-5.855,7.201c-1.165,3.142-1.065,6.465,0.274,9.362
	c2.02,4.434,6.583,7.186,11.892,7.186c0.764,0,1.539-0.065,2.303-0.184c-0.6,2.566-0.401,5.264,0.729,7.74
	c2.03,4.424,6.593,7.175,11.901,7.175c2.258,0,4.461-0.492,6.556-1.458l5.718-2.622c-0.2,1.748,0.064,3.479,0.784,5.036
	c1.657,3.625,5.591,5.874,10.261,5.874c2.287,0,4.653-0.538,6.849-1.549l42.604-19.558c12.275-5.629,19.26-9.361,20.234-9.891
	c4.352-2.031,7.93-5.199,10.551-9.041C194.453,76.092,195.761,64.756,191.21,54.848 M175.857,88.448l-0.063,0.028l-0.045,0.027
	c-0.074,0.037-7.211,3.915-20.006,9.79l-42.615,19.567c-1.485,0.683-3.06,1.038-4.563,1.038c-2.549,0-4.534-1.002-5.308-2.686
	c-1.266-2.769,1.111-6.685,5.19-8.561l21.718-9.971l2.512-1.156l-2.049-1.85c-0.272-0.244-0.545-0.5-0.81-0.765l-0.894-0.891
	l-1.146,0.528l-38.271,17.573c-1.358,0.618-2.822,0.947-4.262,0.947c-3.141,0-5.801-1.53-6.93-3.997
	c-0.81-1.758-0.764-3.798,0.119-5.747c0.938-2.03,2.659-3.715,4.872-4.726l36.722-16.863l1.658-0.756l-0.767-1.657l-0.461-1.011
	l-0.756-1.649l-1.66,0.756l-43.47,19.959c-1.357,0.629-2.832,0.957-4.261,0.957c-3.151,0-5.801-1.539-6.94-3.998
	c-1.711-3.724,0.529-8.432,4.991-10.479L112.4,62.642l1.339-0.61l-0.319-1.438c-0.074-0.346-0.136-0.692-0.201-1.038l-0.41-2.332
	l-2.148,0.984L75.267,74.462c-1.357,0.619-2.832,0.956-4.262,0.956c-3.142,0-5.801-1.529-6.939-3.997
	c-0.801-1.758-0.755-3.798,0.128-5.746c0.929-2.04,2.66-3.715,4.835-4.717c50.71-22.063,50.71-22.063,50.956-22.272l0.801-0.693
	v0.01c-0.008,0.099-0.018,0.191-0.028,0.3c-0.108,1.147-0.108,2.823,0.373,4.799c0.457,1.958,1.431,4.234,3.062,6.283
	c0.793,1.038,1.774,1.985,2.832,2.859c1.073,0.847,2.258,1.602,3.487,2.204c2.478,1.229,5.125,1.93,7.594,2.212
	c0.619,0.101,1.221,0.119,1.82,0.156c0.592,0.036,1.176,0.063,1.732,0.036c0.563-0.019,1.109-0.019,1.637-0.046
	c0.52-0.055,1.031-0.109,1.512-0.155c0.965-0.091,1.84-0.282,2.615-0.437c0.773-0.137,1.428-0.337,1.973-0.5
	c1.084-0.32,1.695-0.556,1.695-0.556s-0.645-0.164-1.74-0.346c-0.553-0.092-1.211-0.21-1.967-0.356
	c-0.754-0.145-1.592-0.245-2.504-0.445c-0.9-0.155-1.875-0.337-2.885-0.565c-0.512-0.101-1.031-0.21-1.547-0.355
	c-0.521-0.145-1.059-0.218-1.584-0.392c-0.529-0.172-1.076-0.282-1.605-0.464c-0.527-0.191-1.074-0.346-1.611-0.537
	c-1.047-0.401-2.112-0.801-3.104-1.321c-0.511-0.246-1.011-0.5-1.476-0.792c-0.492-0.264-0.938-0.574-1.394-0.874
	c-0.883-0.638-1.739-1.284-2.485-2.013c-1.521-1.429-2.724-3.041-3.615-4.561c-0.909-1.521-1.522-2.933-1.922-3.952
	c-0.101-0.264-0.183-0.491-0.265-0.701l1.502-1.285l-3.768-0.683l-11.264-2.057c-2.34-0.419-4.38-1.731-5.728-3.688
	c-1.356-1.958-1.867-4.325-1.438-6.665c0.764-4.235,4.443-7.312,8.741-7.312c0.537,0,1.074,0.054,1.612,0.145l46.219,9.142
	l6.475,1.284c6.273,2.049,11.502,6.766,14.342,12.958l8.168,17.802c2.639,5.745,2.984,12.219,0.982,18.238
	c-0.418,1.248-0.92,2.441-1.512,3.561C183.498,83.186,180.083,86.5,175.857,88.448"/>
<path fill="#414142" d="M187.181,35.139l8.164,17.808c4.268,9.282,4.176,19.951,0.01,28.996l42.9-20.271L209.117,0l-38.664,18.268
	C177.736,21.64,183.732,27.642,187.181,35.139"/>
<path fill="#414142" d="M66.765,6.951L0.707,73.008L105.29,177.592l66.057-66.058L66.765,6.951z M106.208,163.998L14.302,72.09
	l51.545-51.544l91.904,91.907L106.208,163.998z"/>
<path fill="none" stroke="#424143" stroke-miterlimit="10" d="M66.765,6.951L0.707,73.008L105.29,177.592l66.057-66.058
	L66.765,6.951z M106.208,163.998L14.302,72.09l51.545-51.544l91.904,91.907L106.208,163.998z"/>
<rect x="49.579" y="27.283" transform="matrix(0.7071 -0.7071 0.7071 0.7071 -40.0493 87.8579)" fill="#414142" width="72.894" height="129.976"/>
<rect x="49.579" y="27.283" transform="matrix(0.7071 -0.7071 0.7071 0.7071 -40.0493 87.8579)" fill="none" stroke="#424143" stroke-miterlimit="10" width="72.894" height="129.976"/>
<text transform="matrix(0.7071 -0.7071 0.7071 0.7071 94.3145 157.1001)"><tspan x="0" y="0" fill="#FFFFFF" font-family="'Lato-Black'" font-size="34.0005" letter-spacing="-2">P</tspan><tspan x="15.232" y="0" fill="#FFFFFF" font-family="'Lato-Black'" font-size="34.0005">ASS</tspan></text>
<path fill="#FFFFFF" d="M40.85,47.381c-14.431,14.43-14.431,37.911,0.001,52.342c14.429,14.431,37.91,14.431,52.341,0
	c14.43-14.431,14.43-37.912,0-52.342C78.761,32.95,55.28,32.95,40.85,47.381 M95.884,71.6c-0.205,0.042-0.411,0.084-0.615,0.13
	c-0.807,0.182-1.61,0.383-2.404,0.62c-0.088,0.025-0.175,0.058-0.266,0.085c-0.715,0.218-1.422,0.46-2.123,0.721
	c-0.202,0.074-0.404,0.15-0.604,0.227c-0.172,0.068-0.346,0.125-0.514,0.195c-0.017-0.047-0.041-0.093-0.062-0.139
	c-0.057-0.146-0.125-0.29-0.188-0.437c-0.205-0.479-0.418-0.958-0.642-1.432c-0.096-0.2-0.197-0.402-0.297-0.602
	c-0.211-0.43-0.434-0.855-0.664-1.276c-0.104-0.191-0.205-0.382-0.314-0.57c-0.284-0.504-0.585-1.004-0.893-1.5
	c-0.057-0.087-0.108-0.177-0.166-0.268c-0.369-0.581-0.762-1.154-1.164-1.72c-0.11-0.151-0.223-0.299-0.332-0.449
	c-0.307-0.416-0.619-0.829-0.946-1.238c-0.144-0.182-0.294-0.366-0.444-0.548c-0.315-0.383-0.638-0.762-0.97-1.137
	c-0.147-0.169-0.293-0.338-0.443-0.504c-0.072-0.077-0.137-0.158-0.207-0.233l7.41-7.411c4.413,4.993,6.834,11.138,7.266,17.398
	C96.163,71.542,96.023,71.572,95.884,71.6 M79.048,58.947c-0.035-0.033-0.072-0.064-0.11-0.096c-0.101-0.094-0.207-0.184-0.31-0.276
	c-0.361-0.327-0.728-0.646-1.098-0.956c-0.147-0.125-0.295-0.247-0.445-0.368c-0.352-0.287-0.707-0.567-1.064-0.84
	c-0.135-0.104-0.27-0.21-0.407-0.312c-0.488-0.363-0.981-0.719-1.484-1.057c-0.031-0.022-0.065-0.043-0.096-0.065
	c-0.467-0.315-0.939-0.616-1.416-0.907c-0.154-0.095-0.311-0.186-0.467-0.28c-0.371-0.22-0.743-0.433-1.117-0.64
	c-0.166-0.092-0.33-0.183-0.496-0.27c-0.434-0.231-0.871-0.453-1.313-0.667c-0.094-0.046-0.185-0.093-0.281-0.138
	c-0.022-0.011-0.045-0.025-0.068-0.035c0.035-0.089,0.062-0.181,0.095-0.271c0.175-0.464,0.339-0.93,0.491-1.4
	c0.051-0.154,0.102-0.309,0.152-0.463c0.371-1.176,0.681-2.369,0.934-3.576c0.036-0.167,0.068-0.331,0.1-0.498
	c0.089-0.457,0.169-0.919,0.244-1.38c5.619,0.741,11.061,3.102,15.566,7.085L79.048,58.947z M67.235,44.197
	c-0.006,0.043-0.01,0.086-0.016,0.129c-0.034,0.19-0.072,0.379-0.106,0.567c-0.138,0.736-0.294,1.466-0.479,2.19
	c-0.014,0.049-0.025,0.1-0.036,0.151c-0.202,0.765-0.437,1.521-0.693,2.272c-0.058,0.177-0.121,0.356-0.184,0.533
	c-0.073,0.203-0.161,0.401-0.238,0.601c-0.039-0.014-0.078-0.025-0.117-0.038c-0.609-0.215-1.213-0.413-1.81-0.59
	c-0.086-0.026-0.17-0.048-0.254-0.073c-0.606-0.175-1.203-0.335-1.793-0.475c-0.063-0.015-0.124-0.028-0.188-0.043
	c-0.609-0.141-1.215-0.267-1.804-0.375c-0.016-0.003-0.032-0.005-0.049-0.008c-0.602-0.108-1.193-0.199-1.774-0.274
	c-0.027-0.004-0.056-0.009-0.084-0.013c-0.562-0.072-1.111-0.127-1.65-0.173c-0.061-0.005-0.123-0.012-0.184-0.016
	c-0.514-0.042-1.017-0.069-1.505-0.091c-0.077-0.003-0.155-0.005-0.233-0.007c-0.473-0.018-0.935-0.024-1.383-0.023
	c-0.08,0-0.157,0.002-0.234,0c-0.222,0.003-0.44,0.007-0.653,0.012C56.499,45.578,61.87,44.158,67.235,44.197 M84.009,76.277
	c-0.168,0.101-0.336,0.206-0.504,0.311c-0.647,0.403-1.285,0.818-1.912,1.261c-0.02,0.017-0.041,0.028-0.06,0.042
	c-0.641,0.456-1.269,0.94-1.891,1.437c-0.158,0.125-0.316,0.254-0.472,0.384c-0.614,0.505-1.22,1.021-1.811,1.566
	c-0.006,0.007-0.012,0.009-0.018,0.016l-7.742-7.742l9.443-9.443c0.039,0.046,0.082,0.087,0.125,0.131
	c0.129,0.143,0.25,0.288,0.377,0.432c0.306,0.344,0.603,0.693,0.893,1.045c0.146,0.178,0.289,0.357,0.429,0.536
	c0.27,0.339,0.53,0.683,0.785,1.029c0.129,0.171,0.257,0.342,0.379,0.514c0.319,0.449,0.627,0.903,0.926,1.362
	c0.043,0.067,0.088,0.131,0.133,0.197c0.332,0.524,0.647,1.056,0.949,1.591c0.096,0.167,0.182,0.337,0.275,0.504
	c0.207,0.383,0.41,0.766,0.602,1.154c0.096,0.195,0.19,0.39,0.283,0.586c0.185,0.388,0.36,0.779,0.528,1.171
	c0.076,0.179,0.156,0.354,0.228,0.535c0.03,0.075,0.057,0.151,0.084,0.226c-0.002,0.002-0.006,0.005-0.01,0.005
	C85.346,75.488,84.673,75.876,84.009,76.277 M87.229,78.626c0.04,0.145,0.069,0.284,0.108,0.426
	c0.129,0.494,0.252,0.985,0.356,1.465c0.05,0.237,0.089,0.466,0.136,0.697c0.076,0.405,0.152,0.804,0.214,1.195
	c0.038,0.248,0.071,0.489,0.103,0.732c0.048,0.366,0.097,0.73,0.132,1.085c0.025,0.24,0.047,0.477,0.067,0.712
	c0.029,0.345,0.052,0.686,0.069,1.02c0.013,0.223,0.023,0.445,0.03,0.661c0.011,0.339,0.014,0.665,0.018,0.987
	c0.002,0.195,0.004,0.392,0.002,0.579c-0.003,0.344-0.015,0.671-0.027,0.994c-0.006,0.148-0.007,0.302-0.017,0.445
	c-0.023,0.43-0.05,0.838-0.087,1.225c-0.002,0.025-0.002,0.057-0.004,0.081c-0.039,0.417-0.084,0.806-0.129,1.172
	c-0.002,0.015-0.006,0.028-0.008,0.043l-8.269-8.27c0.06-0.056,0.123-0.107,0.185-0.164c0.438-0.395,0.883-0.778,1.333-1.15
	c0.152-0.127,0.305-0.25,0.456-0.37c0.446-0.359,0.897-0.704,1.354-1.038c0.092-0.067,0.182-0.137,0.272-0.202
	c0.544-0.389,1.095-0.759,1.658-1.116c0.138-0.088,0.281-0.174,0.422-0.261c0.441-0.273,0.886-0.536,1.337-0.787
	C87.038,78.733,87.134,78.68,87.229,78.626 M67.021,70.974l-6.161-6.162c0.011-0.014,0.024-0.029,0.037-0.044
	c0.588-0.639,1.146-1.293,1.686-1.957c0.135-0.165,0.268-0.329,0.398-0.496c0.508-0.644,1.001-1.294,1.465-1.959
	c0.027-0.037,0.055-0.073,0.08-0.111c0.483-0.694,0.93-1.404,1.362-2.118c0.109-0.18,0.216-0.362,0.322-0.542
	c0.42-0.722,0.824-1.452,1.195-2.194c0.002-0.005,0.004-0.007,0.004-0.011c0.006,0.002,0.011,0.005,0.015,0.008
	c0.716,0.337,1.417,0.712,2.112,1.104c0.174,0.097,0.346,0.196,0.519,0.297c0.69,0.405,1.376,0.825,2.046,1.278
	c0.009,0.008,0.02,0.017,0.032,0.023c0.661,0.45,1.308,0.933,1.948,1.431c0.16,0.124,0.318,0.25,0.478,0.377
	c0.639,0.515,1.272,1.049,1.891,1.613c0.005,0.005,0.01,0.01,0.017,0.017L67.021,70.974z M58.279,62.232l-9.848-9.849
	c0.068-0.007,0.134-0.018,0.206-0.026c0.255-0.032,0.53-0.06,0.809-0.088c0.167-0.016,0.33-0.034,0.505-0.047
	c0.37-0.03,0.765-0.054,1.17-0.074c0.107-0.005,0.204-0.014,0.314-0.016c0.517-0.022,1.063-0.029,1.63-0.023
	c0.159,0.001,0.329,0.01,0.491,0.015c0.418,0.008,0.844,0.023,1.287,0.048c0.222,0.014,0.452,0.034,0.68,0.052
	c0.405,0.033,0.818,0.072,1.24,0.121c0.249,0.029,0.498,0.061,0.752,0.095c0.433,0.06,0.877,0.134,1.322,0.213
	c0.249,0.044,0.496,0.084,0.748,0.135c0.533,0.106,1.078,0.235,1.628,0.374c0.172,0.043,0.341,0.077,0.515,0.124
	c0.718,0.193,1.447,0.416,2.183,0.67c0.037,0.013,0.074,0.028,0.11,0.04c-0.043,0.084-0.088,0.166-0.131,0.248
	c-0.284,0.546-0.583,1.088-0.899,1.623c-0.097,0.167-0.193,0.333-0.293,0.498c-0.381,0.624-0.777,1.242-1.199,1.851
	c-0.041,0.057-0.087,0.114-0.125,0.172c-0.394,0.557-0.809,1.107-1.236,1.649c-0.122,0.155-0.246,0.308-0.37,0.461
	c-0.466,0.573-0.945,1.14-1.451,1.691C58.306,62.203,58.292,62.218,58.279,62.232 M39.274,77.184
	c0.181-0.036,0.366-0.071,0.546-0.108c0.584-0.123,1.164-0.256,1.742-0.405c0.028-0.007,0.056-0.015,0.084-0.023
	c0.574-0.151,1.142-0.319,1.708-0.498c0.172-0.053,0.341-0.109,0.512-0.165c0.449-0.15,0.897-0.306,1.342-0.471
	c0.1-0.039,0.203-0.069,0.304-0.108c0.009,0.023,0.022,0.045,0.033,0.067c0.045,0.097,0.097,0.194,0.142,0.291
	c0.212,0.439,0.433,0.872,0.662,1.302c0.088,0.167,0.18,0.333,0.273,0.499c0.205,0.374,0.418,0.746,0.637,1.117
	c0.094,0.155,0.185,0.313,0.279,0.468c0.293,0.474,0.596,0.948,0.908,1.414c0.023,0.032,0.043,0.065,0.066,0.096
	c0.339,0.503,0.694,0.996,1.058,1.484c0.101,0.137,0.206,0.271,0.31,0.407c0.274,0.357,0.554,0.712,0.841,1.064
	c0.12,0.149,0.243,0.298,0.367,0.445c0.31,0.371,0.63,0.736,0.956,1.098c0.093,0.102,0.182,0.209,0.278,0.31
	c0.032,0.037,0.062,0.075,0.095,0.11l-7.41,7.412c-3.985-4.505-6.345-9.949-7.086-15.568C38.374,77.35,38.826,77.27,39.274,77.184
	 M54.995,88.156c0.076,0.071,0.154,0.136,0.233,0.207c0.166,0.151,0.335,0.296,0.503,0.443c0.375,0.333,0.754,0.656,1.139,0.971
	c0.181,0.15,0.363,0.301,0.548,0.445c0.409,0.324,0.821,0.639,1.235,0.941c0.152,0.11,0.299,0.226,0.45,0.334
	c0.566,0.402,1.141,0.793,1.722,1.164c0.089,0.059,0.179,0.109,0.268,0.166c0.494,0.311,0.995,0.608,1.499,0.895
	c0.188,0.107,0.38,0.209,0.571,0.314c0.42,0.229,0.846,0.451,1.274,0.664c0.201,0.1,0.403,0.199,0.603,0.295
	c0.475,0.225,0.953,0.438,1.432,0.644c0.146,0.062,0.291,0.129,0.437,0.187c0.046,0.021,0.092,0.045,0.139,0.063
	c-0.07,0.169-0.127,0.343-0.195,0.514c-0.078,0.2-0.153,0.402-0.227,0.604c-0.26,0.701-0.506,1.408-0.721,2.125
	c-0.027,0.091-0.058,0.177-0.086,0.266c-0.234,0.793-0.437,1.598-0.617,2.404c-0.049,0.203-0.09,0.408-0.133,0.613
	c-0.029,0.14-0.058,0.279-0.09,0.418c-6.258-0.43-12.402-2.852-17.396-7.264L54.995,88.156z M68.696,102.859
	c0.022-0.096,0.043-0.191,0.067-0.289c0.146-0.652,0.314-1.3,0.5-1.943c0.033-0.115,0.062-0.233,0.097-0.348
	c0.213-0.705,0.453-1.399,0.708-2.089c0.06-0.159,0.122-0.317,0.185-0.477c0.082-0.207,0.176-0.408,0.26-0.611
	c0.086,0.022,0.168,0.043,0.25,0.065c0.25,0.072,0.496,0.137,0.743,0.201c0.397,0.105,0.794,0.209,1.184,0.297
	c0.256,0.062,0.507,0.117,0.76,0.17c0.378,0.078,0.752,0.152,1.123,0.22c0.244,0.042,0.487,0.086,0.727,0.123
	c0.381,0.062,0.75,0.112,1.123,0.162c0.213,0.026,0.431,0.057,0.642,0.081c0.418,0.046,0.823,0.082,1.226,0.113
	c0.151,0.013,0.308,0.028,0.458,0.039c0.551,0.037,1.083,0.063,1.6,0.074c0.099,0.004,0.191,0.002,0.29,0.002
	c0.417,0.008,0.827,0.01,1.221,0.006c0.145-0.004,0.284-0.009,0.426-0.014C78.108,101.184,73.431,102.591,68.696,102.859
	 M74.749,83.888c-0.545,0.592-1.062,1.198-1.566,1.811c-0.131,0.158-0.258,0.315-0.385,0.473c-0.496,0.622-0.982,1.25-1.436,1.891
	c-0.014,0.019-0.027,0.041-0.043,0.059c-0.443,0.628-0.859,1.267-1.261,1.915c-0.106,0.166-0.208,0.334-0.311,0.502
	c-0.402,0.666-0.789,1.338-1.148,2.019c-0.002,0.006-0.006,0.011-0.008,0.013c-0.073-0.031-0.151-0.055-0.225-0.087
	c-0.18-0.071-0.355-0.151-0.534-0.229c-0.394-0.166-0.784-0.341-1.173-0.525c-0.195-0.093-0.39-0.188-0.586-0.284
	c-0.386-0.193-0.769-0.395-1.152-0.602c-0.169-0.092-0.338-0.18-0.505-0.275c-0.535-0.302-1.065-0.617-1.591-0.949
	c-0.066-0.045-0.129-0.092-0.195-0.135c-0.461-0.296-0.916-0.604-1.363-0.924c-0.174-0.121-0.344-0.25-0.516-0.378
	c-0.346-0.257-0.689-0.516-1.028-0.786c-0.179-0.141-0.359-0.283-0.536-0.43c-0.351-0.288-0.702-0.587-1.044-0.892
	c-0.145-0.127-0.289-0.248-0.433-0.377c-0.044-0.042-0.086-0.086-0.131-0.126l9.442-9.442l7.742,7.742
	C74.759,83.876,74.755,83.883,74.749,83.888 M77.345,86.453l8.277,8.277c-0.016,0.002-0.025,0.006-0.041,0.006
	c-0.361,0.047-0.75,0.092-1.16,0.129c-0.058,0.006-0.121,0.008-0.181,0.014c-0.358,0.031-0.729,0.06-1.122,0.08
	c-0.153,0.009-0.319,0.012-0.478,0.018c-0.312,0.014-0.629,0.021-0.959,0.029c-0.196,0.002-0.399-0.004-0.598-0.004
	c-0.316-0.002-0.638-0.006-0.967-0.019c-0.222-0.007-0.446-0.019-0.674-0.03c-0.33-0.018-0.666-0.041-1.009-0.069
	c-0.239-0.021-0.477-0.041-0.723-0.065c-0.352-0.037-0.712-0.082-1.074-0.134c-0.248-0.032-0.492-0.063-0.745-0.103
	c-0.386-0.063-0.781-0.139-1.176-0.215c-0.239-0.047-0.479-0.086-0.722-0.14c-0.468-0.103-0.945-0.223-1.424-0.348
	c-0.158-0.044-0.313-0.075-0.473-0.119c0.05-0.091,0.1-0.179,0.15-0.269c0.257-0.461,0.525-0.918,0.805-1.369
	c0.082-0.137,0.167-0.273,0.251-0.409c0.357-0.56,0.728-1.114,1.118-1.659c0.065-0.092,0.136-0.18,0.2-0.27
	c0.335-0.459,0.682-0.912,1.041-1.357c0.121-0.152,0.243-0.304,0.369-0.455c0.373-0.451,0.756-0.896,1.153-1.334
	C77.237,86.577,77.29,86.513,77.345,86.453 M54.997,82.997c-0.006-0.006-0.012-0.011-0.017-0.017
	c-0.564-0.618-1.096-1.253-1.611-1.892c-0.128-0.158-0.253-0.319-0.378-0.477c-0.498-0.639-0.98-1.286-1.429-1.948
	c-0.008-0.011-0.016-0.022-0.024-0.033c-0.454-0.669-0.874-1.354-1.277-2.043c-0.102-0.174-0.201-0.348-0.301-0.525
	c-0.389-0.692-0.762-1.391-1.103-2.103c-0.001-0.007-0.004-0.013-0.008-0.019l0.004-0.001c0.748-0.372,1.482-0.779,2.21-1.204
	c0.176-0.102,0.353-0.207,0.528-0.314c0.718-0.432,1.43-0.882,2.127-1.365c0.035-0.025,0.068-0.052,0.103-0.076
	c0.666-0.464,1.32-0.961,1.965-1.469c0.165-0.131,0.332-0.265,0.496-0.398c0.664-0.541,1.319-1.098,1.957-1.685
	c0.014-0.015,0.03-0.027,0.043-0.038l6.162,6.161L54.997,82.997z M55.702,64.809c-0.014,0.013-0.028,0.025-0.044,0.04
	c-0.554,0.504-1.117,0.983-1.691,1.449c-0.152,0.124-0.304,0.247-0.458,0.369c-0.544,0.428-1.092,0.841-1.651,1.235
	c-0.057,0.041-0.114,0.085-0.171,0.125c-0.608,0.423-1.226,0.818-1.85,1.199c-0.167,0.102-0.335,0.2-0.503,0.298
	c-0.526,0.31-1.062,0.608-1.603,0.888c-0.087,0.045-0.174,0.093-0.264,0.14c-0.012-0.035-0.029-0.073-0.04-0.108
	c-0.256-0.739-0.478-1.47-0.672-2.187c-0.045-0.172-0.078-0.336-0.121-0.506c-0.139-0.552-0.268-1.101-0.375-1.637
	c-0.051-0.252-0.092-0.497-0.135-0.746c-0.081-0.446-0.154-0.89-0.213-1.324c-0.035-0.253-0.067-0.502-0.096-0.751
	c-0.048-0.422-0.088-0.838-0.121-1.245c-0.017-0.227-0.037-0.454-0.05-0.675c-0.028-0.443-0.041-0.872-0.051-1.294
	c-0.004-0.161-0.013-0.328-0.014-0.484c-0.006-0.567,0.004-1.115,0.022-1.632c0.003-0.105,0.011-0.201,0.017-0.305
	c0.02-0.41,0.045-0.808,0.072-1.182c0.016-0.168,0.032-0.325,0.047-0.485c0.028-0.289,0.059-0.571,0.09-0.832
	c0.008-0.069,0.018-0.133,0.027-0.199L55.702,64.809z M41.913,58.945c0,0.081-0.001,0.161-0.002,0.245
	c-0.002,0.446,0.006,0.904,0.022,1.375c0.004,0.081,0.007,0.159,0.009,0.241c0.02,0.485,0.049,0.983,0.089,1.494
	c0.005,0.066,0.012,0.133,0.017,0.2c0.047,0.534,0.102,1.076,0.174,1.634c0.004,0.035,0.009,0.07,0.013,0.106
	c0.076,0.568,0.164,1.148,0.271,1.738c0.003,0.027,0.008,0.051,0.012,0.076c0.106,0.584,0.231,1.181,0.371,1.787
	c0.016,0.067,0.031,0.133,0.048,0.203c0.136,0.585,0.296,1.177,0.468,1.775c0.028,0.092,0.052,0.183,0.078,0.275
	c0.178,0.591,0.373,1.188,0.585,1.792c0.017,0.041,0.027,0.086,0.042,0.128c-0.196,0.075-0.391,0.161-0.59,0.233
	c-0.185,0.065-0.368,0.129-0.554,0.193c-0.744,0.253-1.496,0.485-2.258,0.686c-0.057,0.014-0.113,0.026-0.171,0.041
	c-0.717,0.183-1.44,0.338-2.169,0.475c-0.193,0.037-0.383,0.073-0.575,0.103c-0.042,0.008-0.085,0.013-0.127,0.019
	c-0.038-5.366,1.383-10.737,4.259-15.468C41.919,58.509,41.915,58.725,41.913,58.945 M92.125,88.391
	c0.005-0.399,0.003-0.81-0.005-1.23c-0.001-0.095,0.001-0.184-0.003-0.28c-0.012-0.518-0.037-1.052-0.074-1.601
	c-0.009-0.153-0.026-0.307-0.038-0.463c-0.033-0.401-0.067-0.805-0.113-1.219c-0.025-0.214-0.055-0.432-0.082-0.649
	c-0.049-0.37-0.1-0.739-0.163-1.12c-0.037-0.239-0.079-0.48-0.123-0.724c-0.066-0.373-0.14-0.748-0.22-1.128
	c-0.053-0.25-0.106-0.502-0.166-0.757c-0.092-0.39-0.194-0.787-0.299-1.185c-0.067-0.246-0.129-0.491-0.201-0.741
	c-0.024-0.084-0.042-0.166-0.067-0.251c0.203-0.085,0.407-0.179,0.612-0.26c0.16-0.062,0.318-0.125,0.477-0.186
	c0.689-0.254,1.386-0.495,2.087-0.706c0.115-0.035,0.234-0.065,0.349-0.098c0.644-0.187,1.292-0.353,1.944-0.5
	c0.096-0.023,0.191-0.045,0.289-0.067c-0.269,4.733-1.675,9.411-4.217,13.589C92.118,88.674,92.122,88.535,92.125,88.391"/>
</svg>
