<?xml version="1.0" encoding="utf-8"?>
<!-- Generator: Adobe Illustrator 14.0.0, SVG Export Plug-In . SVG Version: 6.00 Build 43363)  -->
<!DOCTYPE svg PUBLIC "-//W3C//DTD SVG 1.1//EN" "http://www.w3.org/Graphics/SVG/1.1/DTD/svg11.dtd">
<svg version="1.1" id="Layer_1" xmlns="http://www.w3.org/2000/svg" xmlns:xlink="http://www.w3.org/1999/xlink" x="0px" y="0px"
	 width="191px" height="180.999px" viewBox="0 0 191 180.999" enable-background="new 0 0 191 180.999" xml:space="preserve">
<rect x="11.5" y="11.5" fill="#FFFFFF" width="168" height="157.999"/>
<path fill="#424143" d="M191,180.999H0V0h191V180.999z M23,157.999h145V23H23V157.999z"/>
<path fill="#424143" d="M140.457,120.568c-7.184-12.59-20.043-23.332-33.418-25.801c15.881-4.179,27.41-16.753,27.41-31.614
	c0-18.289-17.459-33.107-39-33.108c-21.542,0.001-39.001,14.819-39.001,33.108c0,14.861,11.534,27.435,27.409,31.614
	c-13.369,2.469-26.229,13.211-33.416,25.801c-11.987,21.011-10.864,59.66-10.864,59.66h55.872h55.872
	C151.32,180.229,152.443,141.579,140.457,120.568"/>
</svg>
