<?xml version="1.0" encoding="utf-8"?>
<!-- Generator: Adobe Illustrator 14.0.0, SVG Export Plug-In . SVG Version: 6.00 Build 43363)  -->
<!DOCTYPE svg PUBLIC "-//W3C//DTD SVG 1.1//EN" "http://www.w3.org/Graphics/SVG/1.1/DTD/svg11.dtd">
<svg version="1.1" id="Layer_1" xmlns="http://www.w3.org/2000/svg" xmlns:xlink="http://www.w3.org/1999/xlink" x="0px" y="0px"
	 width="171.711px" height="221.479px" viewBox="0 0 171.711 221.479" enable-background="new 0 0 171.711 221.479"
	 xml:space="preserve">
<path fill="#FFFFFF" d="M0,0v221.479h38.282l133.429-77.799V0H0z M155.114,133.997l-51.221-28.895l-55.982,99.213H15.684V15.118
	h139.43V133.997z"/>
<polygon fill="#424143" points="155.114,15.118 155.114,133.996 103.893,105.103 47.911,204.316 15.684,204.316 15.684,15.118 "/>
<rect x="30.918" y="33.279" fill="#FFFFFF" width="48.013" height="8.071"/>
<rect x="31.107" y="51.531" fill="#FFFFFF" width="105.85" height="8.071"/>
<rect x="31.107" y="69.788" fill="#FFFFFF" width="105.85" height="8.07"/>
<rect x="31.107" y="88.041" fill="#FFFFFF" width="105.85" height="8.071"/>
<polygon fill="#424143" points="159.317,196.569 155.491,207.324 154.584,209.866 152.258,208.5 142.415,202.721 132.569,208.5 
	130.245,209.866 129.336,207.324 125.51,196.569 122.625,196.084 115.266,215.063 129.471,210.401 136.825,223.419 143.151,207.103 
	149.473,223.419 156.827,210.401 171.032,215.063 163.586,195.85 "/>
<path fill="#FFFFFF" d="M163.04,151.846l-12.514,2.3l-8.113-9.808l-8.107,9.808l-12.516-2.3l0.094,12.723l-11.068,6.284l8.248,9.69
	l-4.436,11.927l12.547,2.117l4.266,11.99l10.973-6.442l10.977,6.442l4.266-11.99l12.547-2.117l-4.436-11.927l8.248-9.69
	l-11.066-6.284L163.04,151.846z M142.413,192.975c-9.133,0-16.539-7.403-16.539-16.539c0-9.133,7.406-16.54,16.539-16.54
	c9.137,0,16.541,7.407,16.541,16.54C158.954,185.571,151.549,192.975,142.413,192.975"/>
<path fill="none" stroke="#424143" stroke-width="2.8" stroke-miterlimit="10" d="M163.04,151.846l-12.514,2.3l-8.113-9.808
	l-8.107,9.808l-12.516-2.3l0.094,12.723l-11.068,6.284l8.248,9.69l-4.436,11.927l12.547,2.117l4.266,11.99l10.973-6.442
	l10.977,6.442l4.266-11.99l12.547-2.117l-4.436-11.927l8.248-9.69l-11.066-6.284L163.04,151.846z M142.413,192.975
	c-9.133,0-16.539-7.403-16.539-16.539c0-9.133,7.406-16.54,16.539-16.54c9.137,0,16.541,7.407,16.541,16.54
	C158.954,185.571,151.549,192.975,142.413,192.975z"/>
<polygon fill="#424143" points="142.831,163.03 138.817,171.164 129.84,172.467 136.334,178.799 134.801,187.737 142.831,183.518 
	150.858,187.737 149.325,178.799 155.819,172.467 146.844,171.164 "/>
</svg>
