<?xml version="1.0" encoding="utf-8"?>
<!-- Generator: Adobe Illustrator 14.0.0, SVG Export Plug-In . SVG Version: 6.00 Build 43363)  -->
<!DOCTYPE svg PUBLIC "-//W3C//DTD SVG 1.1//EN" "http://www.w3.org/Graphics/SVG/1.1/DTD/svg11.dtd">
<svg version="1.1" id="Layer_1" xmlns="http://www.w3.org/2000/svg" xmlns:xlink="http://www.w3.org/1999/xlink" x="0px" y="0px"
	 width="221.803px" height="174.017px" viewBox="0 0 221.803 174.017" enable-background="new 0 0 221.803 174.017"
	 xml:space="preserve">
<path fill="#424143" d="M84.863,25.568H13.094c-4.007,0-7.256,2.791-7.256,6.235v113.531c0,3.442,3.249,6.233,7.256,6.233h194.974
	c4.009,0,7.258-2.791,7.258-6.233V31.804c0-3.444-3.249-6.235-7.258-6.235h-71.768 M57.623,42.661
	c11.877,0,21.506,9.629,21.506,21.506c0,11.878-9.629,21.507-21.506,21.507c-11.878,0-21.507-9.629-21.507-21.507
	C36.116,52.29,45.745,42.661,57.623,42.661 M61.911,92.706v2.877c0,0.66-0.063,1.238-0.148,1.287
	c-0.081,0.045-0.614,0.359-1.182,0.695l-1.928,1.146c-0.566,0.339-1.497,0.339-2.063,0l-1.929-1.146
	c-0.569-0.336-1.098-0.65-1.178-0.695c-0.083-0.049-0.148-0.627-0.148-1.287v-2.877c0-0.657,0.54-1.198,1.2-1.198h6.178
	C61.371,91.508,61.911,92.049,61.911,92.706 M94.35,135.075H20.896v-21.818c0-12.611,9.831-22.922,22.246-23.696l8.958,20.269
	l1.355-9.319c0.094-0.653,0.635-0.911,1.205-0.576l1.928,1.149c0.567,0.338,1.497,0.338,2.064,0l1.928-1.149
	c0.567-0.335,1.112-0.077,1.203,0.576l1.36,9.325l8.961-20.274c12.415,0.774,22.246,11.085,22.246,23.696V135.075z M159.109,118.567
	H111.17v-9.742h47.939V118.567z M196.723,96.378H111.17v-9.74h85.553V96.378z M196.723,74.189H111.17v-9.742h85.553V74.189z"/>
<path fill="#FFFFFF" d="M72.104,89.561l-8.96,20.274l-1.361-9.325c-0.09-0.653-0.635-0.911-1.203-0.575l-1.928,1.148
	c-0.566,0.338-1.497,0.338-2.063,0l-1.929-1.148c-0.57-0.336-1.11-0.078-1.205,0.575l-1.354,9.319l-8.959-20.269
	c-12.415,0.774-22.246,11.085-22.246,23.696v21.818H94.35v-21.818C94.35,100.646,84.519,90.335,72.104,89.561"/>
<path fill="#FFFFFF" d="M57.623,85.673c11.878,0,21.506-9.629,21.506-21.506c0-11.878-9.628-21.507-21.506-21.507
	c-11.877,0-21.506,9.629-21.506,21.507C36.117,76.044,45.746,85.673,57.623,85.673"/>
<path fill="#FFFFFF" d="M54.535,91.508c-0.66,0-1.2,0.541-1.2,1.198v2.877c0,0.66,0.066,1.238,0.148,1.287
	c0.081,0.045,0.609,0.359,1.178,0.695l1.929,1.147c0.567,0.338,1.497,0.338,2.064,0l1.927-1.147c0.568-0.336,1.101-0.65,1.182-0.695
	c0.085-0.049,0.148-0.627,0.148-1.287v-2.877c0-0.657-0.54-1.198-1.198-1.198H54.535z"/>
<rect x="111.169" y="64.448" fill="#F2F3F2" width="85.554" height="9.742"/>
<rect x="111.169" y="86.638" fill="#F2F3F2" width="85.554" height="9.74"/>
<rect x="111.169" y="108.825" fill="#F2F3F2" width="47.938" height="9.742"/>
</svg>
