<?xml version="1.0" encoding="utf-8"?>
<!-- Generator: Adobe Illustrator 14.0.0, SVG Export Plug-In . SVG Version: 6.00 Build 43363)  -->
<!DOCTYPE svg PUBLIC "-//W3C//DTD SVG 1.1//EN" "http://www.w3.org/Graphics/SVG/1.1/DTD/svg11.dtd">
<svg version="1.1" id="Layer_1" xmlns="http://www.w3.org/2000/svg" xmlns:xlink="http://www.w3.org/1999/xlink" x="0px" y="0px"
	 width="173.656px" height="223.992px" viewBox="0 0 173.656 223.992" enable-background="new 0 0 173.656 223.992"
	 xml:space="preserve">
<path fill="#FFFFFF" d="M0,0v223.992h38.715l134.941-78.681V0H0z M156.873,135.518l-51.803-29.223L48.457,206.634H15.859V15.29
	h141.014V135.518z"/>
<polygon fill="#424143" points="156.873,15.291 156.873,135.518 105.07,106.296 48.457,206.635 15.859,206.635 15.859,15.291 "/>
<rect x="31.266" y="33.657" fill="#FFFFFF" width="48.557" height="8.163"/>
<rect x="31.457" y="52.117" fill="#FFFFFF" width="107.055" height="8.163"/>
<rect x="31.457" y="70.58" fill="#FFFFFF" width="107.055" height="8.162"/>
<rect x="31.457" y="89.041" fill="#FFFFFF" width="107.055" height="8.162"/>
<path fill="#FFFFFF" d="M161.258,164.716l-15.422,7.253c-1.451-0.913-4.92-3.068-9.254-5.563c0.973-0.907,1.311-2.361,0.711-3.631
	c-0.74-1.57-2.611-2.247-4.184-1.506l-3.123,1.47c-1.229-0.658-2.473-1.308-3.729-1.943c1.113-0.888,1.521-2.447,0.891-3.792
	c-0.74-1.573-2.613-2.245-4.186-1.506l-3.236,1.524c-0.238,0.111-0.449,0.256-0.645,0.418c-6.611-2.8-12.203-4.152-13.637-1.606
	c0,0,17.68,17.42,24.627,23.553l-19.93,11.421l-8.541-6.8c-1.051-0.806-2.459-0.953-3.656-0.388l-4.596,2.168l10.922,12.618
	l2.779,16.457l4.598-2.164c1.193-0.567,1.98-1.747,2.033-3.067l0.625-9.983l20.824-8.979c0.357,9.663,2.424,33.407,2.424,33.407
	c2.877,0.516,5.398-4.653,7.461-11.53c0.242-0.05,0.49-0.117,0.729-0.229l3.236-1.522c1.574-0.741,2.244-2.615,1.506-4.187
	c-0.631-1.342-2.09-2.022-3.486-1.732c0.313-1.37,0.605-2.743,0.881-4.11l3.121-1.469c1.572-0.737,2.246-2.613,1.508-4.183
	c-0.598-1.271-1.93-1.938-3.25-1.764c0.748-4.408,1.266-8.098,1.527-10.05l15.732-7.401c4.424-2.077,6.832-6.271,5.377-9.357
	C170.445,163.45,165.678,162.633,161.258,164.716"/>
<path fill="none" stroke="#424143" stroke-width="2.8" stroke-miterlimit="10" d="M161.258,164.716l-15.422,7.253
	c-1.451-0.913-4.92-3.068-9.254-5.563c0.973-0.907,1.311-2.361,0.711-3.631c-0.74-1.57-2.611-2.247-4.184-1.506l-3.123,1.47
	c-1.229-0.658-2.473-1.308-3.729-1.943c1.113-0.888,1.521-2.447,0.891-3.792c-0.74-1.573-2.613-2.245-4.186-1.506l-3.236,1.524
	c-0.238,0.111-0.449,0.256-0.645,0.418c-6.611-2.8-12.203-4.152-13.637-1.606c0,0,17.68,17.42,24.627,23.553l-19.93,11.421
	l-8.541-6.8c-1.051-0.806-2.459-0.953-3.656-0.388l-4.596,2.168l10.922,12.618l2.779,16.457l4.598-2.164
	c1.193-0.567,1.98-1.747,2.033-3.067l0.625-9.983l20.824-8.979c0.357,9.663,2.424,33.407,2.424,33.407
	c2.877,0.516,5.398-4.653,7.461-11.53c0.242-0.05,0.49-0.117,0.729-0.229l3.236-1.522c1.574-0.741,2.244-2.615,1.506-4.187
	c-0.631-1.342-2.09-2.022-3.486-1.732c0.313-1.37,0.605-2.743,0.881-4.11l3.121-1.469c1.572-0.737,2.246-2.613,1.508-4.183
	c-0.598-1.271-1.93-1.938-3.25-1.764c0.748-4.408,1.266-8.098,1.527-10.05l15.732-7.401c4.424-2.077,6.832-6.271,5.377-9.357
	C170.445,163.45,165.678,162.633,161.258,164.716z"/>
</svg>
